<?xml version="1.0" encoding="utf-8"?>

<!DOCTYPE svg PUBLIC "-//W3C//DTD SVG 1.1//EN" "http://www.w3.org/Graphics/SVG/1.1/DTD/svg11.dtd">
<svg version="1.1" id="Layer_1" xmlns="http://www.w3.org/2000/svg" xmlns:xlink="http://www.w3.org/1999/xlink" x="0px" y="0px"
	 viewBox="0 0 2230.127 1710.4603" enable-background="new 0 0 2230.127 1710.4603" xml:space="preserve">
<g>
	<path d="M72.1545,146.0003c-3.1077-50.1558,44.5985-84.3223,79.1376-88.9844c45.0625-6.0825,87.4606,4.1339,128.9555,19.1339
		c97.8298,35.3646,183.4897,92.2625,266.4928,153.4703c59.2783,43.7128,116.4727,90.0416,170.4872,140.19
		c87.7518,81.4709,170.6893,167.4082,242.8124,263.2728c19.6392,26.1042,37.7545,53.2805,53.2593,82.1149
		c5.9306,11.0292,11.2978,22.3048,12.7227,34.8708c0.7928,6.9922,2.3862,15.5848-5.3558,19.3258
		c-8.0668,3.8981-13.481-2.9114-17.8713-8.5522c-16.2997-20.9415-32.0904-42.2818-49.3218-62.4874
		c-28.1824-33.0468-57.5468-64.9621-88.8424-95.132c-27.1396-26.1635-55.691-50.6467-86.0387-72.8995
		c-34.6526-25.4093-70.6055-48.7841-112.8265-60.1502c-4.5207-1.217-9.1815-2.3998-13.821-2.6045
		c-19.1769-0.846-36.9294-6.5606-53.9346-15.0178c-50.5572-25.1436-104.7816-32.3055-160.3633-32.5669
		c-29.1419-0.1371-30.667-1.4072-33.2644-30.3598c-2.3327-26.0023-9.5935-49.4348-30.0828-67.9125
		c-29.0066-26.1587-78.6203-28.9369-109.9325-5.4723c-11.3942,8.5385-19.3603,19.5793-27.2321,30.9461
		c-1.8895,2.7284-3.5508,5.6218-5.5345,8.2768c-9.1426,12.2366-18.0027,13.4149-29.1474,2.9025
		c-18.9948-17.917-34.3918-38.9683-50.2191-59.5943c-15.6446-20.3878-32.8536-39.6009-46.6055-61.4144
		c-14.9637-23.7357-28.786-47.9864-32.5851-76.493c-0.2554-1.9166-0.7584-3.8146-0.85-5.7354
		C72.0482,152.0917,72.1545,149.0435,72.1545,146.0003z"/>
	<path d="M2158.0984,173.2693c-2.5933,17.6604-7.9268,38.3363-17.821,57.8623c-17.5544,34.6434-42.1875,64.2007-66.7534,93.7715
		c-15.1887,18.2834-29.5958,37.301-47.1276,53.55c-20.0044,18.541-30.4187,17.1337-43.9742-6.4185
		c-11.2777-19.5946-24.6036-36.5094-47.2351-44.3102c-43.9033-15.1329-100.9821,6.9016-111.1783,62.7752
		c-2.0842,11.422-3.9971,22.8753-6.0848,34.2967c-1.5901,8.6978-6.9362,13.3626-15.6393,14.7842
		c-5.498,0.898-10.941,1.3738-16.5063,1.1154c-63.0079-2.9256-123.3043,8.4068-180.7356,34.6007
		c-9.6722,4.4115-19.5541,7.3306-30.3573,7.4251c-19.7749,0.1729-37.9017,6.9985-55.8065,14.6458
		c-35.1144,14.9974-66.7926,35.6789-97.2009,58.4585c-33.2408,24.9013-65.0009,51.5851-94.778,80.5453
		c-29.7557,28.9394-57.8616,59.4234-84.0166,91.6855c-9.2311,11.3867-18.4247,22.8256-28.1766,33.7577
		c-4.2769,4.7946-9.9492,11.2584-16.8837,6.8785c-6.0038-3.7922-2.4652-11.2617-1.1401-16.9537
		c2.6653-11.4476,8.6985-21.49,14.5052-31.5585c28.7365-49.8286,63.7296-95.1114,101.0753-138.6587
		c47.6091-55.5153,98.408-108.0329,152.1892-157.5184c54.7642-50.39,111.4218-98.5767,170.8575-143.5491
		c34.2294-25.8997,69.376-50.5143,105.0035-74.2021c30.0447-19.9761,61.8407-37.7187,94.1686-54.1705
		c23.9264-12.1764,48.1741-23.5722,72.9821-33.8748c49.0192-20.3572,99.2021-35.5351,152.9729-30.7262
		c35.1687,3.1453,67.3535,14.169,87.3933,46.5371C2154.4668,144.7374,2158.4226,156.5075,2158.0984,173.2693z"/>
	<path d="M436.9005,728.3397c20.8677,3.3605,41.8552,0.1591,62.8525,1.0424c47.7733,2.01,95.1217,8.2042,142.7183,11.7452
		c31.9157,2.3744,63.73,7.4569,95.8708,2.6164c11.6432-1.7536,21.2986,2.3745,30.3398,10.1314
		c22.3115,19.1424,40.3441,42.5518,62.7164,61.6199c16.835,14.3487,33.1227,29.3434,49.5305,44.1871
		c4.2984,3.8886,8.2775,8.16,12.1475,12.4845c3.9822,4.4499,7.3295,9.5019,4.7342,15.7542
		c-2.4095,5.8047-8.3028,4.7563-13.0197,5.0613c-28.2187,1.8238-56.2861-2.0229-84.4449-2.5333
		c-43.0667-0.7808-86.0539-3.3934-129.1263,3.0869c-22.2801,3.3522-45.1035,4.4994-67.7309,5.7189
		c-30.6411,1.6512-61.3431,3.5665-91.997,3.2477c-41.847-0.4348-83.2236-4.5502-122.4073-21.7563
		c-40.101-17.609-62.4836-51.7682-59.5697-95.1332c1.4423-21.4649,11.0871-37.7794,32.5106-45.6707
		c13.3347-4.9118,26.5728-9.0947,41.0969-8.3789C414.4457,732.1212,425.3648,726.8063,436.9005,728.3397z"/>
	<path d="M1713.1345,918.6415c-40.3595-1.0755-80.6188-2.7649-120.6857-8.6934c-71.0677-10.5154-142.5685-13.7-214.3651-10.3972
		c-13.5292,0.6224-27.1187,0.1353-40.6748-0.1255c-6.3322-0.1218-13.6318,0.0759-16.2661-7.2358
		c-2.6721-7.4172,1.6086-13.3229,6.7269-18.3968c14.1959-14.0727,30.4487-25.7344,46.0586-38.055
		c21.571-17.0255,41.6821-35.5139,61.0891-54.8615c9.4365-9.4078,19.7323-17.7744,30.5283-25.5451
		c8.2349-5.9276,17.837-7.5464,26.9098-4.3396c19.3044,6.8234,39.1416,5.2269,58.3311,2.9544
		c19.4954-2.3087,39.2218-4.011,58.5502-4.6486c37.3098-1.2308,74.6085-5.7341,111.9113-3.8812
		c27.2675,1.3544,54.6195,1.9741,81.8348,5.4606c17.5084,2.243,35.7443,1.5724,52.2683,7.7679
		c28.0255,10.5079,42.3989,29.5446,35.6461,59.8336c-10.0861,45.2398-38.3881,73.8508-82.8772,88.91
		C1776.774,917.9991,1745.0681,917.3688,1713.1345,918.6415z"/>
	<path d="M633.4435,537.9872c0.0928-6.9337,0.4827-13.8532,2.3403-20.5635c3.2411-11.7093,10.8165-16.8392,22.8271-15.6099
		c6.3807,0.6531,12.4371,2.527,18.3484,4.9728c37.4053,15.4764,70.7705,37.6542,102.4368,62.46
		c88.055,68.9778,163.5119,149.6577,224.4927,243.5876c11.7498,18.0985,22.6253,36.7579,29.2675,57.5427
		c3.0768,9.6279,4.2736,19.3917,3.7545,29.4459c-0.7971,15.437-8.9287,21.9868-24.2101,18.8382
		c-13.2044-2.7207-24.7346-9.3088-36.0936-16.335c-30.9265-19.1298-58.8773-42.0828-86.1969-65.9335
		c-63.7321-55.64-125.5052-113.373-184.3524-174.1437c-27.6136-28.5162-51.8235-59.7896-67.375-96.9019
		C633.7603,553.5999,633.1373,551.0888,633.4435,537.9872z"/>
	<path d="M1533.6957,1175.5839c0.5703,23.062-6.4821,28.7839-24.266,23.4747c-23.3104-6.9586-46.299-15.0421-69.2623-23.1075
		c-44.3875-15.5898-87.998-33.2197-130.5947-53.1398c-37.1444-17.3702-73.0273-37.1027-103.5267-65.1952
		c-1.0173-0.9373-2.0454-1.863-3.0706-2.7919c-35.2656-31.9491-17.1746-71.5402,9.0962-89.191
		c20.057-13.4761,42.658-15.845,64.6685-21.2038c15.7557-3.8359,31.8236-6.2758,48.1357-7.881
		c26.5802-2.6157,52.8165-3.7444,79.1569,1.4841c8.3657,1.6606,14.7388,5.7229,19.9641,12.2709
		c13.6958,17.1624,24.521,36.1554,35.3801,55.1212c22.5444,39.3748,43.7292,79.4413,60.2198,121.8001
		C1526.4182,1144.7467,1532.8915,1162.429,1533.6957,1175.5839z"/>
	<path d="M1181.5314,902.2165c0.5542-9.0838,4.0883-20.718,9.0521-31.8775c16.8491-37.8791,39.2606-72.2729,64.7578-104.9093
		c32.9641-42.1939,69.3981-81.1362,108.2593-117.8167c36.0431-34.0204,74.5021-65.0245,116.0515-92.2916
		c19.0753-12.5182,39.2709-22.5966,59.4218-32.9412c8.9708-4.6052,18.8643-6.8306,28.6902-7.8477
		c24.1268-2.4974,31.3547,8.4293,26.8722,33.5618c-3.4077,19.1064-11.4567,36.9216-21.8241,53.517
		c-24.9623,39.9574-55.9321,74.7234-91.1398,105.8598c-36.4708,32.2537-72.3082,65.2541-109.4844,96.6718
		c-47.7296,40.3364-95.4945,80.8341-151.7013,109.5367c-7.0057,3.5776-14.3549,5.7498-22.0966,6.761
		C1186.3674,922.011,1181.2872,917.5012,1181.5314,902.2165z"/>
	<path d="M1035.1704,1002.8065c-1.1218,20.023-11.0588,35.5358-25.3566,48.6674c-31.8474,29.2502-69.9938,48.2327-108.9524,65.5775
		c-25.4998,11.3529-51.3422,22.104-77.5958,31.5566c-40.5624,14.6047-81.3772,28.6027-123.2665,39.1013
		c-2.9348,0.7355-5.9899,1.1763-9.0118,1.344c-8.9232,0.4956-13.5047-3.861-13.3553-12.8395
		c0.1633-9.8168,3.2106-19.0216,6.4323-28.1792c12.6262-35.889,30.1163-69.4957,48.5216-102.6301
		c18.4006-33.1262,37.7542-65.6689,59.7467-96.6193c9.9755-14.0388,21.8558-19.8914,39.7264-19.8433
		c49.6711,0.1339,98.2139,6.0472,145.2679,22.0502c20.0491,6.8188,38.9518,16.0374,51.8442,34.0821
		C1032.9691,990.3899,1035.6,996.0505,1035.1704,1002.8065z"/>
	<path d="M1151.6887,737.3415c-0.7451,17.6143,0.0637,35.4175-6.1497,52.4319c-1.3511,3.6996-1.4082,7.7424-0.2661,11.4753
		c3.2174,10.5166,3.0283,21.2836,3.0011,32.0798c-0.1516,60.031-0.2257,120.0623-0.3864,180.0933
		c-0.137,51.1997-4.8175,102.0409-12.0653,152.6866c-2.0865,14.5803-2.0052,29.3202-0.2764,43.8761
		c1.369,11.5244,0.4563,22.717-2.3635,33.7006c-3.6671,14.2843-3.8141,28.3397-0.5009,42.663
		c4.9731,21.4984,1.0826,41.7784-9.6862,60.7783c-4.894,8.6349-11.8558,14.7255-22.5988,14.2025
		c-10.7627-0.5236-16.8787-7.5293-21.2084-16.3414c-7.6676-15.6057-8.8215-32.9523-4.6403-48.7271
		c5.9871-22.5875,4.205-44.1299,0.1934-66.314c-2.4192-13.3773-1.7307-26.9668,0.1663-40.4847
		c2.6569-18.9347-1.9529-37.4298-4.2881-55.9908c-4.229-33.6135-4.3596-67.2513-2.7974-100.9938
		c0.472-10.1946,0.3738-20.4305,0.1576-30.6393c-0.8834-41.7355,1.2958-83.442,0.8958-125.1893
		c-0.251-26.1965,2.4442-52.4286,4.0629-78.6296c0.3486-5.6433-0.6125-10.9811-1.6179-16.424
		c-5.6476-30.5721-3.9518-60.5807,7.4351-89.7272c3.7638-9.6341,9.0256-18.3692,17.1626-25.0717
		c9.8239-8.092,19.8055-8.6206,30.481-1.5042c11.9872,7.9909,18.0823,19.9006,21.6251,33.3348
		C1151.3661,711.2981,1152.1953,724.2585,1151.6887,737.3415z"/>
	<path d="M1449.0159,1517.6519c-19.6375-0.198-39.2269-13.894-53.7529-36.0389c-17.1121-26.0873-28.3759-55.0092-39.7274-83.8215
		c-18.0372-45.7821-34.9413-92.0276-58.8633-135.2577c-8.1665-14.7582-17.178-29.3112-23.1117-44.9773
		c-7.6976-20.3231-14.2461-41.3419-13.877-63.6226c0.0365-2.2019,0.2545-4.4265,0.651-6.5924
		c2.3082-12.6105,7.0184-16.0479,19.0557-11.8094c30.3723,10.6945,58.8785,25.3705,86.1282,42.4681
		c6.8331,4.2874,11.1934,10.8301,13.402,18.4456c12.3705,42.6578,31.9906,82.4441,49.2208,123.1271
		c18.6971,44.1462,34.3754,89.1888,46.6536,135.465c3.2024,12.0699,3.7175,24.5913,5.0835,36.9406
		C1482.108,1512.1332,1477.3958,1517.119,1449.0159,1517.6519z"/>
	<path d="M613.575,1538.3066c-0.4331,1.6422-1.1006,5.4952-2.4619,9.0853c-4.0323,10.6344-7.0112,21.5266-9.5404,32.6154
		c-3.2733,14.3503-10.127,17.7144-23.665,11.392c-16.7886-7.8405-33.6621-15.6445-49.7941-24.7178
		c-45.6443-25.6718-89.7192-53.824-129.3757-88.2471c-38.8512-33.7244-73.8349-70.876-99.0421-116.3096
		c-5.797-10.4484-10.6501-21.2671-14.4239-32.5851c-1.4075-4.2212-2.4317-8.5258-2.1621-13.0234
		c0.6185-10.3173,6.2648-14.469,15.528-10.0475c28.8408,13.7664,57.2651,11.5629,85.8831-0.5139
		c11.4248-4.8214,16.4222-2.6163,20.3522,9.0023c6.8194,20.1606,17.2685,37.6272,34.7729,50.3594
		c6.4958,4.7246,8.9827,11.8651,10.2777,19.3223c3.1348,18.0513,11.7736,33.2219,23.7032,46.7584
		c13.7451,15.5967,27.966,30.6334,45.8507,41.7363c10.4638,6.4961,21.5112,11.3835,33.5421,13.9524
		c11.7964,2.5184,21.775,8.0702,29.2858,17.5696c5.8314,7.3754,13.6584,11.9434,21.6041,16.4896
		C609.6474,1524.4285,614.3937,1528.5552,613.575,1538.3066z"/>
	<path d="M744.2214,1509.4396c-0.5532,0-1.1064,0.0096-1.6593-0.0015c-17.6588-0.3558-21.3992-5.1493-18.8054-22.6146
		c4.3317-29.167,15.0558-56.5206,23.638-84.4639c10.6312-34.6149,26.2886-67.2766,40.7242-100.375
		c13.7875-31.6124,28.5786-62.7861,42.7607-94.2283c4.4207-9.8005,5.7597-20.7621,11.4551-30.1696
		c3.3891-5.598,7.358-10.3534,13.0921-13.506c24.7626-13.614,50.7181-24.3949,77.746-32.6117
		c1.0546-0.3206,2.1426-0.5618,3.2318-0.7341c15.0529-2.3811,20.2206,1.7637,17.6052,16.7345
		c-3.9962,22.8745-10.8491,44.9873-20.8232,66.144c-13.7036,29.0679-31.9566,55.6384-45.7676,84.6189
		c-17.8493,37.4541-31.873,76.5754-49.3132,114.1805c-11.7096,25.2487-22.8671,51.024-41.6586,72.3147
		C782.542,1500.4824,765.5168,1509.4148,744.2214,1509.4396z"/>
	<path d="M1588.0245,1548.7452c-0.5951-9.0021,3.236-15.3075,11.4272-18.4258c14.7495-5.6145,27.5055-13.9435,38.2111-25.5922
		c3.8724-4.2136,9.4609-5.5197,14.9458-6.6367c22.5969-4.6019,43.7068-12.8647,60.8448-28.5851
		c22.9656-21.0651,44.2422-43.553,49.9656-76.1074c1.1515-6.5494,4.0614-12.5657,10.2574-15.3054
		c20.1569-8.9132,28.1653-27.2635,36.1371-45.5854c5.3922-12.3934,9.7014-14.2939,21.3344-7.652
		c25.0118,14.2808,51.1136,16.5093,78.3121,7.4064c1.3115-0.439,2.6101-0.9269,3.9429-1.2883
		c10.1321-2.748,13.4833,0.1709,11.8367,10.7242c-1.2924,8.2837-4.8942,15.8213-8.4523,23.3265
		c-20.7335,43.7341-51.3661,79.8193-86.993,111.9441c-58.7992,53.0194-126.897,91.1538-198.611,123.4238
		c-7.3188,3.2933-14.743,6.2997-22.9116,6.9275c-5.777,0.444-9.6088-1.7175-11.2823-7.4031
		c-0.7025-2.3865-1.7443-4.6886-2.2766-7.1072C1591.5076,1578.2495,1591.8936,1563.1665,1588.0245,1548.7452z"/>
	<path d="M1674.083,628.8199c31.5084-0.2791,63.1548,1.6542,94.3995-3.6301c16.2247-2.744,32.3931-3.1618,48.7153-3.05
		c6.8887,0.0472,12.0997,2.1763,16.4075,7.7692c7.688,9.9809,12.2595,20.8864,12.262,33.5947
		c0.0026,12.7133,0.4016,25.3568-3.8103,37.7531c-6.3002,18.5425-23.8234,28.073-40.8849,26.0605
		c-60.2817-7.1107-120.8077-6.9887-181.39-2.72c-30.8773,2.1757-61.7113,5.4443-92.7173,5.6272
		c-2.2126,0.013-4.4314,0.1425-6.6368,0.0248c-4.1189-0.22-9.0334,0.1608-10.9666-4.1951
		c-1.9382-4.3678,1.6376-7.8722,4.2689-10.9681c6.4454-7.5839,13.1093-14.9827,20.6456-21.5383
		c16.5845-14.4263,28.8181-32.7831,43.8199-48.6688c10.5309-11.1515,21.8315-17.3507,37.8311-16.346
		C1635.3088,629.7437,1654.7249,628.8193,1674.083,628.8199z"/>
	<path d="M377.5734,658.1885c0.1067-6.971,2.0444-19.5471,6.8482-31.464c8.2229-20.3988,22.6101-27.7808,44.0295-23.2776
		c42.9142,9.0223,86.2958,12.9232,130.1559,12.9011c22.9093-0.0115,45.8278,1.5804,68.7254,2.7715
		c9.3083,0.4842,17.0849,4.8342,22.6854,12.2726c18.9964,25.2302,39.0952,49.5277,60.4066,72.8365
		c2.9326,3.2076,6.4286,6.9776,3.7879,11.777c-2.5971,4.7201-7.7153,3.8651-11.9935,3.4402
		c-33.8314-3.3591-67.5972-7.4719-101.4727-10.2693c-49.1241-4.0566-98.3586-5.408-147.6394-2.9697
		c-9.1192,0.451-18.2669,0.6905-27.3412,1.6176C391.403,711.3351,377.4648,698.7806,377.5734,658.1885z"/>
	<path d="M1564.6035,1505.7959c-14.5154,0.3002-27.5759-2.3424-40.0863-6.8251c-13.8694-4.9694-22.816-14.7102-26.0503-29.6986
		c-6.8937-31.9481-17.4332-62.8351-27.8082-93.786c-15.6681-46.741-36.1661-91.5327-54.3743-137.2472
		c-3.3699-8.4611-6.6885-17.0771-6.9399-26.3579c-0.3397-12.542,6.0226-17.8704,17.8566-13.803
		c16.1326,5.5447,33.373,8.4093,47.6982,18.6454c4.9719,3.553,10.1056,7.0444,13.3936,12.2554
		c11.5033,18.2311,22.4639,36.812,32.2001,56.0374c9.2504,18.2665,19.5026,35.9846,28.9159,54.1344
		c15.515,29.9144,28.316,61.1323,42.1531,91.8519c6.1351,13.6207,12.473,26.979,14.3207,42.1133
		c1.8644,15.2711-2.6239,23.5981-17.0641,28.9061C1580.6614,1505.0203,1572.2161,1506.1996,1564.6035,1505.7959z"/>
	<path d="M1659.8365,605.3298c-10.7874,0-21.6128,0.5752-32.3523-0.1396c-14.795-0.9846-19.8765-7.7187-14.7135-21.4984
		c8.0073-21.3718,8.5909-43.8515,11.9288-65.9092c1.9296-12.7516,8.2592-20.8289,19.9451-26.2386
		c27.0945-12.5427,56.3232-16.0668,85.2147-20.2241c29.3756-4.227,58.8192-3.7008,87.4707,6.6723
		c16.4924,5.971,25.3861,17.7584,27.8517,34.0877c7.1157,47.1298-28.5101,85.0029-67.7719,87.4978
		C1738.2285,602.0677,1699.0835,604.6328,1659.8365,605.3298z"/>
	<path d="M577.748,590.5752c-34.5491-0.7425-68.9313-3.8687-103.2763-7.4156c-10.9955-1.1356-22.0721-0.6774-33.0403-2.576
		c-56.7755-9.8281-72.9478-62.3605-50.6222-106.1769c7.3271-14.3801,21.9914-20.365,37.345-21.4368
		c52.2044-3.644,102.3141,6.2793,150.7689,25.4225c2.82,1.1141,5.4393,2.7263,8.2255,3.9377
		c13.8583,6.0255,20.3127,16.8605,19.3235,31.6186c-1.2738,19.0047,1.6924,37.3928,5.7257,55.8368
		c3.5009,16.0098-0.7023,20.6601-17.0291,20.7828C589.3622,590.6119,583.555,590.5752,577.748,590.5752z"/>
	<path d="M1792.7867,1161.5822c0.3284,9.2928-1.1558,18.2874-4.7527,26.7964c-7.3462,17.3793-21.0562,22.0944-36.851,11.8701
		c-37.0232-23.9658-76.066-44.1973-115.9205-62.8243c-30.3096-14.1658-61.0995-27.3435-91.9845-40.2203
		c-13.5314-5.6415-22.2693-14.7751-27.3162-28.201c-3.8906-10.3497-8.8435-20.3906-10.2958-31.4612
		c-1.6832-12.8317,2.317-16.7327,14.7866-14.1351c41.9716,8.7428,84.5605,13.6757,126.7709,20.916
		c31.2297,5.3571,61.3875,14.4806,89.8381,28.5497c20.5913,10.1827,37.5105,24.8127,47.4348,45.8905
		C1790.7916,1132.1326,1792.3179,1146.8705,1792.7867,1161.5822z"/>
	<path d="M641.6384,1493.8944c-10.4761-0.0895-19.2601-1.1956-27.7963-3.6583c-13.2148-3.8127-18.1063-12.1522-16.2244-25.6545
		c1.8379-13.1868,7.578-24.899,13.6523-36.3126c19.744-37.0989,37.9888-74.9631,57.5134-112.1809
		c12.4805-23.7904,26.5809-46.3654,40.71-69.0619c7.1443-11.4767,12.8691-23.8063,21.5242-34.381
		c5.8134-7.1028,12.3976-12.2703,21.8157-13.7819c13.0378-2.0927,24.9594-9.0999,38.6449-8.705
		c13.0731,0.3771,16.5377,6.0381,10.8967,18.0585c-19.9639,42.542-39.6772,85.1631-56.5504,129.0974
		c-16.3521,42.5774-32.6978,85.1337-46.518,128.6057c-4.0223,12.6525-12.493,19.9248-24.8218,23.1161
		C663.2227,1491.9513,651.7377,1493.6838,641.6384,1493.8944z"/>
	<path d="M419.4046,1158.936c-0.0166-21.9453,3.5227-41.3818,11.5895-58.8094c6.757-14.5978,19.3526-26.1882,32.3564-36.1774
		c18.7601-14.4108,40.4615-21.8705,63.3948-27.4144c37.4825-9.0615,75.6872-12.8481,113.7974-16.4035
		c18.6618-1.741,36.9758-6.6281,55.9043-6.0135c13.9107,0.4515,17.2318,4.2281,12.2477,17.3438
		c-5.9181,15.5734-14.3807,29.889-24.2841,43.2874c-4.2213,5.7109-10.0649,9.366-16.7468,11.7538
		c-12.5011,4.4673-24.9809,8.9946-37.4525,13.5438c-39.0022,14.2271-76.342,32.2607-114.0155,49.5576
		c-22.6625,10.4048-43.3506,24.5502-66.2269,34.4255c-15.3771,6.6382-28.368-1.5297-30.1983-18.2948
		C419.4413,1162.7191,419.4412,1159.6672,419.4046,1158.936z"/>
	<path d="M1781.1514,1287.8774c-1.2367,15.7415-1.6996,34.6007-12.3479,51.3053c-7.7728,12.1935-15.7216,15.079-29.5389,10.5796
		c-16.4281-5.3492-28.5232-17.053-40.439-28.3771c-23.1704-22.02-49.5945-39.775-74.5242-59.4822
		c-15.8402-12.5219-30.9684-25.8474-45.2692-40.1543c-12.0665-12.0719-19.1448-26.05-20.4348-43.1857
		c-0.7871-10.4541-3.3545-20.7585-3.3121-31.3108c0.0569-14.0698,4.7076-17.6838,18.0347-12.8574
		c12.7113,4.6036,25.2568,9.8004,37.4993,15.5385c33.293,15.6046,66.806,30.8054,98.1179,50.3051
		c15.7534,9.8107,31.1219,20.2067,45.3792,32.045C1773.624,1248.3157,1781.1033,1263.7742,1781.1514,1287.8774z"/>
	<path d="M1362.5309,1542.776c-21.1608,1.7107-30.0171-9.6187-37.5427-27.2446c-15.9614-37.3823-32.4712-74.5305-48.4441-111.9082
		c-20.2172-47.3096-40.0089-94.8729-55.3458-143.9735c-9.4581-30.2795-18.6564-60.8634-24.3086-92.1786
		c-4.1705-23.1051-6.4349-46.5537-5.7322-70.1292c0.1257-4.2183-0.5109-9.5562,4.3499-11.6639
		c4.6545-2.0182,8.4291,1.3385,11.9188,4.0911c6.9489,5.4807,13.7428,11.1614,20.7697,16.5386
		c7.442,5.6948,11.3005,12.9384,9.6754,22.3199c-5.7665,33.2869,5.3881,63.3539,17.6654,93.1454
		c12.0266,29.1836,27.4537,56.7402,41.4766,84.9647c11.3477,22.8403,20.6251,46.623,28.6033,70.6622
		c14.8978,44.8884,34.3529,87.401,58.9497,127.6947c3.1493,5.1591,5.9225,10.6886,7.9187,16.3801
		c3.696,10.5383-0.1113,17.0864-10.8712,19.967C1375.9252,1542.9646,1370.0734,1542.4303,1362.5309,1542.776z"/>
	<path d="M453.3983,1334.4799c-6.4594,0.502-11.2015-2.2642-14.8449-7.4135c-5.4569-7.7123-7.3855-16.4679-8.4239-25.6798
		c-2.2216-19.7076-1.9178-39.2253,4.0483-58.2832c3.4462-11.0085,12.0663-18.4617,20.2616-25.7207
		c25.8838-22.927,55.8468-39.4248,86.7089-54.6602c29.3386-14.483,59.9508-25.495,90.7341-36.2255
		c4.7421-1.6531,9.5229-2.8378,14.4689-3.4825c9.7921-1.2769,14.509,2.291,12.5529,11.8702
		c-6.8985,33.7813-15.9413,65.6658-46.1899,88.5359c-35.924,27.1615-73.5812,52.0778-107.7893,81.5151
		c-9.6246,8.2822-18.8711,17.0879-30.3563,22.9697C467.8542,1331.3442,460.9993,1334.1049,453.3983,1334.4799z"/>
	<path d="M1726.2089,1394.6036c0.865,9.2761-2.6962,17.0234-7.8352,24.0743c-14.1229,19.3771-32.1713,34.2899-53.7014,44.6111
		c-18.9893,9.103-35.1301,2.0878-46.5208-21.2788c-24.4633-50.1826-45.6711-101.9418-72.8214-150.8254
		c-6.5828-11.8521-13.0906-23.7163-18.3785-36.212c-0.8613-2.0354-1.6987-4.0917-2.3708-6.1948
		c-4.8807-15.272,0.7174-22.0115,16.7675-20.5481c13.4569,1.2269,24.6951,5.8218,33.7493,16.7274
		c12.0247,14.4836,26.8347,26.0668,41.9923,37.3223c16.5956,12.3234,32.3112,25.8666,48.0448,39.306
		c16.7592,14.3151,34.0336,28.0533,49.0708,44.3362C1721.8956,1374.2487,1727.0914,1383.1367,1726.2089,1394.6036z"/>
	<path d="M480.2433,1378.8643c-1.6784-10.947,5.6848-20.149,13.5532-28.7804c16.8358-18.4679,37.1243-33.0071,56.4286-48.6681
		c33.2465-26.9722,69.6082-49.8796,101.8564-78.1362c8.5129-7.4591,17.8803-7.5571,27.984-4.4442
		c7.3383,2.2609,9.267,7.1993,7.4928,14.1383c-1.246,4.8732-3.5557,9.3063-6.2291,13.5118
		c-34.77,54.6975-62.7881,113.0509-92.3812,170.5505c-4.5772,8.8934-9.8686,17.2809-16.478,24.8058
		c-11.3557,12.9287-25.6533,15.7654-40.0356,6.226c-18.2305-12.0916-35.3071-25.7239-47.1519-44.7365
		C480.9565,1396.3877,480.991,1388.6279,480.2433,1378.8643z"/>
	<path d="M1940.8997,1178.6017c0,4.6989,0.33,9.426-0.0728,14.0901c-0.6991,8.0956-3.559,10.0551-11.5682,8.5872
		c-3.9047-0.7156-7.3096-2.5895-10.4479-4.8889c-20.6669-15.1427-43.6527-17.6447-68.0105-12.48
		c-25.6677,5.4425-26.2184,5.2554-28.0988-20.4432c-1.9207-26.245-11.7198-49.9973-22.8361-73.265
		c-5.8844-12.3169-8.9366-25.0553-8.5146-38.4971c0.4655-14.8317-1.6-29.2584-5.2037-43.5308
		c-1.9318-7.6498-2.1199-15.2993-1.0352-23.0536c0.9252-6.6153,4.5535-9.328,10.9738-7.2056
		c37.3776,12.356,71.6515,29.5393,95.8038,62.2607C1917.4729,1074.8354,1939.2505,1136.7351,1940.8997,1178.6017z"/>
	<path d="M836.2433,1535.7554c-3.1514,0-4.8139,0.0559-6.4714-0.0096c-7.582-0.2996-15.7386-0.5198-19.4091-8.4305
		c-3.758-8.0995-0.4811-16.1637,4.5908-22.5101c10.7482-13.4485,19.9458-27.8464,29.0132-42.4237
		c12.9305-20.7876,22.5579-43.0778,31.7928-65.6331c13.5159-33.0106,25.9548-66.5786,41.6073-98.5609
		c12.2391-25.0077,26.9714-48.9084,39.6035-73.813c15.0754-29.7211,24.7861-61.0146,23.4529-94.8522
		c-0.6428-16.3131,5.8879-28.2987,20.0889-36.2584c4.8241-2.7041,9.3207-6.0588,14.3052-8.3943
		c6.6602-3.1204,9.873-1.0167,10.3831,6.3545c1.0671,15.4244-3.2847,30.1984-5.9832,45.1154
		c-10.3412,57.1683-29.0793,111.8363-50.3751,165.6884c-21.9954,55.6208-48.036,109.4125-74.1571,163.1659
		c-8.4664,17.4227-16.9536,34.8088-26.3642,51.7673C860.8146,1530.4882,850.8078,1538.1926,836.2433,1535.7554z"/>
	<path d="M269.8072,1165.2916c2.1873-17.8942,7.6713-36.4883,13.8094-54.8071c9.8331-29.3464,19.5608-58.8165,37.2764-84.748
		c23.9553-35.0651,57.5067-55.813,98.2012-65.778c11.4594-2.8062,15.3609,1.0583,13.9485,13.0984
		c-1.267,10.8012-6.4323,20.5441-8.6601,31.1216c-2.1156,10.0453-4.4431,20.1042-3.5307,30.3742
		c1.3134,14.7843-2.8953,28.2783-10.493,40.2488c-13.4326,21.1637-18.7672,44.661-22.7494,68.7719
		c-0.6303,3.8162-1.2652,7.6472-2.2104,11.3927c-2.904,11.5073-8.3312,15.5126-19.3746,11.1168
		c-27.3589-10.8906-52.611-4.5271-77.6393,7.0962c-2.2513,1.0457-4.545,2.0961-6.9279,2.7445
		C272.856,1178.265,269.6246,1175.6622,269.8072,1165.2916z"/>
	<path d="M1762.7552,1032.7493c-0.1263,17.6443-6.4886,22.3068-21.1597,17.2119c-11.5012-3.9941-21.9323-10.4215-33.1976-15.0898
		c-24.8688-10.3054-51.0854-13.7194-77.3761-17.6107c-45.3132-6.707-91.5168-9.2609-134.8156-26.1272
		c-17.4265-6.7881-32.624-16.7145-38.082-36.3306c-3.652-13.1255-0.5251-16.0126,13.1693-15.8123
		c27.3545,0.4005,54.3069,5.3813,81.7023,5.9483c18.6064,0.385,37.0511,5.4973,55.7783,7.0763
		c18.4351,1.5544,36.8005,4.7278,55.2444,5.1614c18.5647,0.4363,36.941,2.1135,55.3435,4.0261
		c9.9032,1.0291,18.1128,5.6409,23.6127,13.8074C1755.1469,993.0833,1760.4325,1013.5818,1762.7552,1032.7493z"/>
	<path d="M453.4398,1019.8522c4.3681-21.9749,11.1926-45.48,25.7399-66.0524c5.2753-7.4603,12.7037-11.3033,21.6798-12.3057
		c1.9214-0.2147,3.8732-0.4478,5.7932-0.343c38.185,2.0833,76.1043-3.4811,114.2413-3.9818
		c35.2936-0.4631,70.5485-4.5306,105.7975-7.3016c9.5057-0.7473,18.7922,0.5488,28.0942,1.6632
		c6.5801,0.7881,8.1016,5.9528,3.9858,13.428c-7.673,13.9363-18.2675,25.1208-33.063,31.4744
		c-27.1575,11.6624-55.7994,17.5314-85.0047,21.2231c-40.267,5.0899-81.1613,5.7733-120.6262,16.4978
		c-14.6559,3.9826-29.0908,8.8118-43.0118,15.0275c-4.283,1.9122-8.6295,3.8094-13.4899,3.7488
		C455.874,1032.8346,453.0742,1029.9169,453.4398,1019.8522z"/>
	<path d="M267.7121,475.2275c0.1002-12.5138,2.6951-14.6973,14.4051-10.786c17.2306,5.7551,34.7572,8.7661,52.9917,8.2609
		c12.2824-0.3403,14.3551,1.6396,14.3329,13.6988c-0.0517,28.0962,4.82,55.0699,17.2169,80.4199
		c5.2968,10.8311,4.1232,20.3016-2.9534,30.1957c-10.8932,15.2302-16.0136,32.6441-15.9887,51.4533
		c0.0179,13.5471-0.631,27.1133,1.6202,40.5839c3.6763,21.9978-8.5597,30.2324-31.6706,34.5239
		c-8.9603,1.6639-13.0779-3.3713-14.5417-13.9811c-3.0984-22.4583-6.0775-44.9235-8.5963-67.4639
		c-5.558-49.7389-12.3631-99.2977-24.3664-148C268.6511,488.0022,268.4956,481.5374,267.7121,475.2275z"/>
	<path d="M1872.4312,717.8323c1.6107-14.7609,4.1855-29.386,2.3617-44.5233c-2.1041-17.462-4.9844-34.6396-13.462-50.1285
		c-8.8005-16.0796-7.575-30.3486,2.3612-45.7905c11.5774-17.9931,12.0269-39.3177,13.7247-60.0034
		c0.4519-5.5053,0.9124-11.0199,1.6813-16.4862c0.8182-5.8182,4.4103-8.8529,10.3085-8.4973
		c19.9519,1.2029,39.7043,0.5173,59.3339-3.9419c7.113-1.6159,10.0763,2.2525,8.2041,10.9938
		c-3.645,17.019-8.057,33.8743-12.1896,50.7881c-7.7511,31.7256-13.1664,63.7889-16.1667,96.3625
		c-2.4313,26.3953-4.8606,53.021-10.5573,78.8233c-6.2402,28.264-13.9359,29.3105-34.6902,13.3448
		C1876.4753,733.4923,1870.9716,727.5079,1872.4312,717.8323z"/>
	<path d="M315.555,439.4543c-32.9103,1.6875-52.2361-26.7049-52.2758-48.6552c-0.0654-36.1388,23.1627-60.973,55.7352-61.1812
		c25.1783-0.161,55.2673,21.223,55.1459,52.7647C374.058,408.9801,349.9472,442.0807,315.555,439.4543z"/>
	<path d="M1907.7821,462.6508c-31.8427-0.3738-55.6864-22.364-54.8082-52.1668c0.9945-33.7453,23.21-58.6444,48.2412-58.7176
		c35.6504-0.1042,61.2212,22.4951,60.8301,52.9635C1961.6147,438.2865,1938.4517,463.0108,1907.7821,462.6508z"/>
	<path d="M1450.5607,1655.2188c-25.9569-1.3956-47.8097-12.3707-67.0111-29.1721c-6.868-6.0098-12.8435-12.9756-18.0768-20.4796
		c-2.0374-2.9211-3.9724-6.0836-5.1244-9.4225c-4.9656-14.3916-1.0702-22.3011,13.802-24.2776
		c19.5598-2.5991,37.6409-7.8291,53.6882-19.8252c7.2252-5.4011,15.2505-3.2726,22.647,1.0419
		c6.9901,4.0775,5.8608,10.6313,5.1299,16.9569c-2.6595,23.0182,0.0203,45.0238,10.7512,65.9658
		c7.3923,14.4264,4.3997,18.8335-11.6595,19.2084C1453.3257,1655.2469,1451.9429,1655.2188,1450.5607,1655.2188z"/>
	<path d="M1920.7097,1259.5468c0.2111,19.647-10.7826,36.8519-28.5082,44.6146c-17.009,7.4487-41.2771,3.4336-54.2596-9.3914
		c-9.1895-9.0781-11.3127-21.0189-10.0084-33.0155c2.4349-22.3995,11.4543-40.8557,34.4142-49.293
		c3.4187-1.2563,6.8638-2.6533,10.4504-2.0138C1898.8317,1215.0884,1921.4501,1223.9331,1920.7097,1259.5468z"/>
	<path d="M289.5819,1245.5901c0.2529-30.8604,20.2427-55.7146,44.512-55.3441c26.1035,0.3988,50.2157,22.0969,49.969,44.9666
		c-0.3254,30.1692-21.2745,51.5812-50.1625,51.2711C309.0755,1286.2172,289.3977,1268.0601,289.5819,1245.5901z"/>
	<path d="M748.0837,1568.5544c0-3.5256-0.2424-9.3385,0.0566-15.1233c0.4514-8.7327,4.995-13.1229,13.7372-13.057
		c8.4918,0.0642,16.3509,2.3546,22.8626,8.2269c12.8961,11.6301,28.4974,17.6392,45.1002,21.4783
		c11.477,2.6537,14.41,8.7546,8.2868,19.1979c-10.4237,17.7781-25.2184,31.4028-42.7302,41.9348
		c-13.1199,7.8909-27.4338,13.0052-42.6674,15.2123c-2.9938,0.4337-6.0582,0.7388-9.0711,0.6206
		c-13.6761-0.5359-17.2111-7.2284-10.0929-18.8654C746.4435,1607.1262,748.6541,1598.4202,748.0837,1568.5544z"/>
	<path d="M1072.9658,628.501c-0.1215,1.7634-0.0548,3.4523-0.3857,5.0594c-0.7203,3.4971-1.1163,7.4778-5.6609,8.1792
		c-4.1327,0.6378-5.8237-2.7443-7.3992-5.5654c-3.8197-6.8397-5.3417-14.4957-7.1984-22.0078
		c-8.9293-36.1273-23.127-69.8067-46.6774-98.9919c-12.7113-15.7526-26.9817-29.9916-43.2745-42.132
		c-10.6907-7.9659-20.198-16.5981-18.4216-31.9537c1.1992-10.3666,6.2231-14.1578,16.4078-11.3806
		c7.0997,1.936,12.8918,6.2533,18.5124,10.7789c28.0468,22.5829,46.8122,52.0947,62.0502,84.0703
		c13.2297,27.7608,24.5083,56.2857,30.0358,86.7366C1071.989,616.9941,1072.3202,622.8218,1072.9658,628.501z"/>
	<path d="M1563.5093,1589.0483c2.7101,24.2074-19.3071,43.0586-43.661,42.709c-18.54-0.2662-37.4211-12.7842-37.4913-39.1432
		c-0.0583-21.9054,19.0619-44.4642,37.8872-44.5022C1542.137,1548.0681,1566.4073,1563.9126,1563.5093,1589.0483z"/>
	<path d="M718.0546,1579.3468c-0.0466,23.4058-17.7999,40.5902-42.1013,40.7524c-23.1809,0.1549-39.9033-16.0983-39.7579-38.6422
		c0.152-23.5892,16.7907-43.0557,37.1597-42.7897C696.2724,1538.9667,719.3227,1552.5288,718.0546,1579.3468z"/>
	<path d="M1144.8866,627.5914c0.7218-12.8442,6.1035-24.8536,10.125-37.1416c12.3561-37.7559,29.2306-73.4768,51.08-106.6567
		c10.9784-16.6712,23.7195-32.0548,40.9366-42.971c5.1593-3.2712,10.3838-6.4054,16.6301-7.1266
		c9.3759-1.0825,14.3518,3.306,13.9496,12.6893c-0.5142,11.9936-7.8431,19.3339-17.1985,25.7635
		c-20.0372,13.7711-39.4146,27.9743-54.2867,48.1026c-18.7092,25.3217-31.801,52.9988-41.1831,82.7104
		c-2.9161,9.2349-5.2933,18.6552-9.7747,27.2952c-1.5328,2.9556-2.4121,7.7471-7.2549,6.3422
		C1143.6876,635.3738,1145.4058,631.0826,1144.8866,627.5914z"/>
</g>
</svg>
